<?xml version="1.0" encoding="UTF-8"?>
<svg id="Calque_1" xmlns="http://www.w3.org/2000/svg" version="1.1" viewBox="0 0 16 16">
  <!-- Generator: Adobe Illustrator 29.8.2, SVG Export Plug-In . SVG Version: 2.1.1 Build 3)  -->
  <circle cx="10.91" cy="11.46" r="1.56"/>
  <circle cx="4.93" cy="11.46" r="1.56"/>
  <path d="M9.63,13.73c-.18,0-.33.15-.33.33,0,.68-.55,1.23-1.23,1.23s-1.23-.55-1.23-1.23c0-.18-.15-.33-.33-.33s-.33.15-.33.33c0,1.05.85,1.9,1.9,1.9s1.9-.85,1.9-1.9c0-.18-.15-.33-.33-.33Z"/>
  <path d="M3.91,8.85c.06.23.27.39.5.39.04,0,.09,0,.13-.02.28-.07.44-.36.37-.63l-.6-2.25,1.13-1.01c.25-.22.41-.53.45-.87l.07-.64c.03-.28-.17-.54-.46-.57-.28-.03-.54.17-.57.46l-.07.64c0,.08-.05.15-.11.2l-.74.66-.55-2.06c-.16-.6-.19-1.21-.08-1.82l.04-.24c.05-.28-.14-.55-.42-.6-.28-.05-.55.14-.6.42l-.04.24c-.13.75-.09,1.51.1,2.25l.51,1.94-.36-.32c-.51-.44-.77-.9-.79-1.35l-.02-.56c-.01-.29-.25-.5-.54-.5-.29.01-.51.25-.5.54l.02.56c.03.75.41,1.46,1.14,2.09l1.52,1.36.44,1.68Z"/>
  <path d="M15.17,3.52c-.01-.29-.26-.5-.54-.5-.29.01-.51.25-.5.54l.05,1.31c.01.3-.12.59-.35.77l-1.06.84.64-3.27c.15-.77.13-1.55-.07-2.3l-.06-.24c-.07-.28-.36-.44-.63-.37-.28.07-.44.36-.37.63l.06.24c.16.6.18,1.22.06,1.83l-.45,2.3-1.32-1.43c-.29-.3-.53-.64-.7-1.02l-.15-.34c-.12-.26-.42-.38-.68-.26-.26.12-.38.42-.26.68l.15.34c.22.49.53.94.9,1.31l1.82,1.98-.41,2.08c-.06.28.13.55.41.61.03,0,.07,0,.1,0,.24,0,.46-.17.51-.42l.16-.81,2.01-1.59c.49-.39.77-1,.75-1.63l-.05-1.31Z"/>
</svg>