<?xml version="1.0" encoding="UTF-8"?>
<svg id="Calque_1" xmlns="http://www.w3.org/2000/svg" version="1.1" viewBox="0 0 68 73">
  <!-- Generator: Adobe Illustrator 29.8.2, SVG Export Plug-In . SVG Version: 2.1.1 Build 3)  -->
  <circle cx="47.54" cy="51.99" r="7.27"/>
  <circle cx="19.74" cy="51.99" r="7.27"/>
  <path d="M41.56,62.54c-.85,0-1.55.69-1.55,1.55,0,3.16-2.57,5.73-5.73,5.73s-5.73-2.57-5.73-5.73c0-.85-.69-1.55-1.55-1.55s-1.55.69-1.55,1.55c0,4.86,3.96,8.82,8.82,8.82s8.82-3.96,8.82-8.82c0-.85-.69-1.55-1.55-1.55Z"/>
  <path d="M14.96,39.87c.29,1.08,1.26,1.79,2.32,1.79.2,0,.41-.03.62-.08,1.29-.34,2.05-1.66,1.71-2.94l-2.77-10.44,5.24-4.67c1.17-1.04,1.9-2.47,2.07-4.03l.32-3c.14-1.32-.81-2.51-2.13-2.65-1.32-.14-2.5.81-2.65,2.13l-.32,3c-.04.37-.21.7-.49.95l-3.42,3.05-2.54-9.59c-.73-2.78-.87-5.62-.39-8.45l.19-1.11c.22-1.31-.66-2.55-1.97-2.77-1.31-.22-2.55.66-2.77,1.97l-.19,1.11c-.59,3.51-.43,7.04.48,10.48l2.39,9.01-1.66-1.48c-2.35-2.05-3.58-4.17-3.66-6.29l-.1-2.62c-.05-1.33-1.14-2.34-2.49-2.32-1.33.05-2.36,1.17-2.31,2.5l.1,2.62c.13,3.5,1.91,6.77,5.29,9.72l7.08,6.33,2.06,7.79Z"/>
  <path d="M67.31,15.08c-.05-1.33-1.19-2.35-2.5-2.31-1.33.05-2.36,1.17-2.31,2.5l.24,6.09c.06,1.39-.56,2.74-1.65,3.6l-4.94,3.91,2.99-15.22c.7-3.59.59-7.19-.33-10.68l-.29-1.1c-.34-1.28-1.66-2.05-2.94-1.71-1.28.34-2.05,1.66-1.71,2.94l.29,1.09c.74,2.79.83,5.65.26,8.52l-2.1,10.7-6.12-6.65c-1.37-1.38-2.47-2.98-3.26-4.76l-.72-1.59c-.54-1.21-1.97-1.75-3.18-1.21-1.21.55-1.75,1.97-1.2,3.18l.71,1.59c1.03,2.3,2.46,4.38,4.17,6.1l8.45,9.18-1.9,9.68c-.26,1.3.59,2.57,1.9,2.82.16.03.31.05.47.05,1.13,0,2.13-.79,2.36-1.94l.74-3.75,9.35-7.4c2.29-1.82,3.59-4.65,3.47-7.57l-.24-6.09Z"/>
</svg>